<mxfile host="app.diagrams.net" agent="Mozilla/5.0 (Macintosh; Intel Mac OS X 10_15_7) AppleWebKit/537.36 (KHTML, like Gecko) Chrome/131.0.0.0 Safari/537.36" version="25.0.1">
  <diagram name="第 1 页" id="-A21sTm3tLc3fU2zs8v6">
    <mxGraphModel dx="977" dy="619" grid="1" gridSize="10" guides="1" tooltips="1" connect="1" arrows="1" fold="1" page="1" pageScale="1" pageWidth="827" pageHeight="1169" math="0" shadow="0">
      <root>
        <mxCell id="0" />
        <mxCell id="1" parent="0" />
        <mxCell id="k3dnD8RgvpeTuZdiRV0v-48" value="" style="rounded=0;whiteSpace=wrap;html=1;" vertex="1" parent="1">
          <mxGeometry x="760" y="515" width="80" height="85" as="geometry" />
        </mxCell>
        <mxCell id="k3dnD8RgvpeTuZdiRV0v-36" value="" style="rounded=0;whiteSpace=wrap;html=1;" vertex="1" parent="1">
          <mxGeometry x="430" y="395" width="80" height="100" as="geometry" />
        </mxCell>
        <mxCell id="k3dnD8RgvpeTuZdiRV0v-26" value="" style="rounded=0;whiteSpace=wrap;html=1;fillColor=#dae8fc;strokeColor=#6c8ebf;" vertex="1" parent="1">
          <mxGeometry x="57.5" y="190" width="222.5" height="500" as="geometry" />
        </mxCell>
        <mxCell id="k3dnD8RgvpeTuZdiRV0v-1" value="&lt;div style=&quot;&quot;&gt;&lt;br&gt;&lt;/div&gt;" style="rounded=0;whiteSpace=wrap;html=1;align=center;fillColor=#bac8d3;strokeColor=#23445d;" vertex="1" parent="1">
          <mxGeometry x="100" y="240" width="130" height="110" as="geometry" />
        </mxCell>
        <mxCell id="k3dnD8RgvpeTuZdiRV0v-38" style="edgeStyle=orthogonalEdgeStyle;rounded=0;orthogonalLoop=1;jettySize=auto;html=1;entryX=0;entryY=0.5;entryDx=0;entryDy=0;" edge="1" parent="1" source="k3dnD8RgvpeTuZdiRV0v-2" target="k3dnD8RgvpeTuZdiRV0v-36">
          <mxGeometry relative="1" as="geometry" />
        </mxCell>
        <mxCell id="k3dnD8RgvpeTuZdiRV0v-2" value="" style="shape=image;verticalLabelPosition=bottom;labelBackgroundColor=default;verticalAlign=top;aspect=fixed;imageAspect=0;image=data:image/svg+xml,PHN2ZyB4bWxuczp4bGluaz0iaHR0cDovL3d3dy53My5vcmcvMTk5OS94bGluayIgeG1sbnM9Imh0dHA6Ly93d3cudzMub3JnLzIwMDAvc3ZnIiBoZWlnaHQ9IjIwMCIgd2lkdGg9IjIwMCIgdmVyc2lvbj0iMS4xIiB2aWV3Qm94PSIwIDAgMTAyNCAxMDI0IiBjbGFzcz0iaWNvbiI+PHBhdGggZmlsbD0iIzEyOTZkYiIgZD0iTTc4LjA4IDkzLjY1MzMzM0M1NC41NzA2NjcgOTMuNDgyNjY3IDM0LjEzMzMzMyAxMDEuNDE4NjY3IDE4LjEzMzMzMyAxMjAuMzItMTguMzA0IDE2My4xMTQ2NjcgMS4yOCAyNjEuNzYgNzYuMjQ1MzMzIDM4MC40NTg2NjdsMC44NTMzMzQgMS4xOTQ2NjZhNDM0LjIxODY2NyA0MzQuMjE4NjY3IDAgMCAwIDguNDA1MzMzIDEyLjY3MmM3My45NDEzMzMgMTEwLjAzNzMzMyAxODEuMjkwNjY3IDE5OS41NTIgMTU5LjcwMTMzMyAzMjMuNjY5MzM0YTE4Mi42MTMzMzMgMTgyLjYxMzMzMyAwIDAgMS0yNS41NTczMzMgNjYuNzMwNjY2QzE1NC4yNCA4ODcuMzM4NjY3IDAuMTI4IDg5OC4wMDUzMzMgMC4xMjggODk4LjAwNTMzM2wxLjc5MiAwLjA0MjY2Ny0xLjkyIDAuMjEzMzMzczE4NS44MTMzMzMgNTcuMzQ0IDM2NC4wNzQ2NjcgMTguNjg4YzI1LjUxNDY2Ny01LjU0NjY2NyA1MC44NTg2NjctMTMuMDEzMzMzIDc1LjQ3NzMzMy0yMi45MTJhNTI2LjEyMjY2NyA1MjYuMTIyNjY3IDAgMCAwIDAuOTgxMzMzLTAuNDI2NjY2YzE0LjYzNDY2Ny01Ljg4OCAyOC40NTg2NjctMTIuMTE3MzMzIDQxLjYtMTguNjQ1MzM0YTUyNi4xMjI2NjcgNTI2LjEyMjY2NyAwIDAgMCAxMi4wMzItNi4xODY2NjZjMTIuMTYtNi40IDIzLjcyMjY2Ny0xMy4wNTYgMzQuNzMwNjY3LTE5LjkyNTMzNGE1MjYuMTIyNjY3IDUyNi4xMjI2NjcgMCAwIDAgNi40ODUzMzMtNC4wNTMzMzNjMTMuNDgyNjY3LTguNzA0IDI2LjAyNjY2Ny0xNy43NDkzMzMgMzcuODg4LTI3LjA5MzMzM2E1MjYuMTIyNjY3IDUyNi4xMjI2NjcgMCAwIDAgNi4yMjkzMzQtNC45NDkzMzRjNi45OTczMzMtNS43MTczMzMgMTMuNzgxMzMzLTExLjUyIDIwLjMwOTMzMy0xNy4zNjUzMzNhNTI2LjEyMjY2NyA1MjYuMTIyNjY3IDAgMCAwIDUuMjQ4LTQuNDhsMS41MzYtMS43MDY2NjdjMC4zNDEzMzMtMC4zNDEzMzMgMC42NC0wLjY4MjY2NyAxLjAyNC0wLjk4MTMzM2E1NDcuOTI1MzMzIDU0Ny45MjUzMzMgMCAwIDAgMzYuNjkzMzMzLTM3Ljg4OGMyLjEzMzMzMy0yLjM4OTMzMyA0LjI2NjY2Ny00Ljc3ODY2NyA2LjMxNDY2Ny03LjIxMDY2NyAyLjUxNzMzMy0yLjkwMTMzMyA1LjAzNDY2Ny01Ljc2IDcuNDY2NjY3LTguNjYxMzMzbDQuMjY2NjY2LTUuMjQ4YzUuNDE4NjY3LTYuNTcwNjY3IDEwLjY2NjY2Ny0xMy4yMjY2NjcgMTUuODcyLTE5Ljg0bDEuMzY1MzM0LTEuNzkyYzI4Ljk3MDY2Ny0zNy41NDY2NjcgNTQuNjEzMzMzLTc1LjkwNCA4Mi40NzQ2NjYtMTEyLjU5NzMzM2w5LjIxNi0xMS44NjEzMzRjMTIuNTQ0LTE1Ljk1NzMzMyAyNS42LTMxLjU3MzMzMyAzOS43NjUzMzQtNDYuNTQ5MzMzbDEuMjgtMS4zMjI2NjdjNC42MDgtNC44NjQgOS4zODY2NjctOS42NDI2NjcgMTQuMjUwNjY2LTE0LjM3ODY2NmwyLjk4NjY2Ny0yLjg1ODY2N2E0NjkuMjA1MzMzIDQ2OS4yMDUzMzMgMCAwIDEgMTEuMjY0LTEwLjM2OGMxLjUzNi0xLjM2NTMzMyAzLjA3Mi0yLjc3MzMzMyA0LjY1MDY2Ny00LjA5NmEyMTMuNDYxMzMzIDIxMy40NjEzMzMgMCAwIDEgMTUuOTU3MzMzLTEyLjUwMTMzM2MwLjUxMi0wLjQyNjY2NyAxLjA2NjY2Ny0wLjc2OCAxLjYyMTMzMy0xLjE1MmEyMTMuNDYxMzMzIDIxMy40NjEzMzMgMCAwIDEgMzYuMjY2NjY3LTIwLjQ4bC0yLjc3MzMzMyAxLjI4IDAuOTM4NjY2LTAuNDI2NjY3IDIuNTYtMS4xNTJhMjM5LjkxNDY2NyAyMzkuOTE0NjY3IDAgMCAxIDY5LjU0NjY2Ny0xNy41Nzg2NjdoMC4wNDI2NjdhMjM5LjkxNDY2NyAyMzkuOTE0NjY3IDAgMCAxIDIyLjc0MTMzMy0xLjEwOTMzM2gyLjk4NjY2N2EyMzkuOTE0NjY3IDIzOS45MTQ2NjcgMCAwIDEgNC45MDY2NjYgMC4wODUzMzNsMTguMjYxMzM0LTAuMTI4YTguNzA0IDguNzA0IDAgMCAwIDMuNzU0NjY2LTAuNjgyNjY2YzIuNjQ1MzMzLTEuMjggMi4wMDUzMzMtNC4zNTItMC41MTItNy45MzZhNTguODggNTguODggMCAwIDAtMTYuNjQtMTQuNjM0NjY3IDE1Ny4zNTQ2NjcgMTU3LjM1NDY2NyAwIDAgMS00LjE4MTMzMy0yLjIxODY2NyAxNjUuMTYyNjY3IDE2NS4xNjI2NjcgMCAwIDEtMS41MzYtMC45Mzg2NjYgMTU3LjM1NDY2NyAxNTcuMzU0NjY3IDAgMCAxLTEwLjkyMjY2Ny02Ljg2OTMzNCAxNjUuMTYyNjY3IDE2NS4xNjI2NjcgMCAwIDEtNS41MDQtNC4wOTYgMTU3LjM1NDY2NyAxNTcuMzU0NjY3IDAgMCAxLTguMjM0NjY2LTYuNGMtOC43NDY2NjctOC41MzMzMzMtMTguNDMyLTMxLjI3NDY2Ny0yMi4zMTQ2NjctMzcuODg4YTg3LjQ2NjY2NyA4Ny40NjY2NjcgMCAwIDAtMTAuMjQtMTQuMDhjLTExLjYwNTMzMy0xMy4wNTYtMjguMzczMzMzLTIyLjc0MTMzMy01NS41NTItMjYuMjQtMzguMDE2LTQuOTA2NjY3LTczLjY4NTMzMyAzLjA3Mi0xMDkuNDQgMTQuMjA4bDQuMjY2NjY3LTEuNDkzMzMzYy00OS44MzQ2NjcgMTUuMTA0LTk5LjU4NCAzNy4xMi0xNTUuOTQ2NjY3IDQwLjEwNjY2N2gtMS43MDY2NjdhMjM2LjkyOCAyMzYuOTI4IDAgMCAxLTI4LjUwMTMzMy0wLjQyNjY2N2wtMi41Ni0wLjE3MDY2N2EyMzMuNTE0NjY3IDIzMy41MTQ2NjcgMCAwIDEtNDkuNDkzMzMzLTkuOTQxMzMzYy01NS45Nzg2NjctMTcuNTc4NjY3LTEzNC41NzA2NjctODAuMjEzMzMzLTIxNS4zMzg2NjctMTQxLjQ4MjY2N2E0ODIyLjA1ODY2NyA0ODIyLjA1ODY2NyAwIDAgMC0yNy43NzYtMjAuOTA2NjY2IDIxOTkuODkzMzMzIDIxOTkuODkzMzMzIDAgMCAwLTMzLjY2NC0yNC43NDY2NjdsLTkuNDcyLTYuNjEzMzMzLTEwLjA2OTMzMy03LjA4MjY2Ny0zLjY2OTMzNC0yLjU2YTc1MS44NzIgNzUxLjg3MiAwIDAgMC02OC43Nzg2NjYtNDIuNTM4NjY3bC0wLjgxMDY2Ny0wLjQyNjY2NmE0MjguMjAyNjY3IDQyOC4yMDI2NjcgMCAwIDAtMTUuNjU4NjY3LTcuOTM2Yy0xLjY2NC0wLjgxMDY2Ny0zLjMyOC0xLjQ5MzMzMy00Ljk5Mi0yLjI2MTMzNGEzMjkuODk4NjY3IDMyOS44OTg2NjcgMCAwIDAtMjMuMzgxMzMzLTkuODEzMzMzbC0yLjEzMzMzMy0wLjcyNTMzM2EyMTQuMzE0NjY3IDIxNC4zMTQ2NjcgMCAwIDAtMTMuNDgyNjY3LTQuMzA5MzM0bC0xLjEwOTMzMy0wLjI5ODY2NmExMzAuMzQ2NjY3IDEzMC4zNDY2NjcgMCAwIDAtMzQuODE2LTUuMzMzMzM0ek04NzguOTMzMzMzIDM2OC42ODI2NjdhMjEuNTA0IDIxLjMzMzMzMyAwIDAgMSAyMS41NDY2NjcgMjEuMzMzMzMzIDIxLjUwNCAyMS4zMzMzMzMgMCAwIDEtMjEuNTQ2NjY3IDIxLjMzMzMzMyAyMS41MDQgMjEuMzMzMzMzIDAgMCAxLTIxLjUwNC0yMS4zMzMzMzMgMjEuNTA0IDIxLjMzMzMzMyAwIDAgMSAyMS41MDQtMjEuMzMzMzMzeiIvPjwvc3ZnPg==;" vertex="1" parent="1">
          <mxGeometry x="200" y="290" width="30" height="30" as="geometry" />
        </mxCell>
        <mxCell id="k3dnD8RgvpeTuZdiRV0v-4" value="&lt;font face=&quot;Comic Sans MS&quot;&gt;fluentd&lt;/font&gt;" style="text;html=1;align=center;verticalAlign=middle;resizable=0;points=[];autosize=1;strokeColor=none;fillColor=none;" vertex="1" parent="1">
          <mxGeometry x="175" y="320" width="60" height="30" as="geometry" />
        </mxCell>
        <mxCell id="k3dnD8RgvpeTuZdiRV0v-5" value="&lt;font face=&quot;Comic Sans MS&quot;&gt;Pod1&amp;nbsp;&lt;/font&gt;" style="text;html=1;align=center;verticalAlign=middle;resizable=0;points=[];autosize=1;strokeColor=none;fillColor=none;" vertex="1" parent="1">
          <mxGeometry x="115" y="260" width="50" height="30" as="geometry" />
        </mxCell>
        <mxCell id="k3dnD8RgvpeTuZdiRV0v-6" value="&lt;font face=&quot;Comic Sans MS&quot;&gt;Pod2&lt;/font&gt;" style="text;html=1;align=center;verticalAlign=middle;resizable=0;points=[];autosize=1;strokeColor=none;fillColor=none;" vertex="1" parent="1">
          <mxGeometry x="165" y="260" width="50" height="30" as="geometry" />
        </mxCell>
        <mxCell id="k3dnD8RgvpeTuZdiRV0v-8" value="&lt;font face=&quot;Comic Sans MS&quot;&gt;......&amp;nbsp; PodN&lt;/font&gt;" style="text;html=1;align=center;verticalAlign=middle;resizable=0;points=[];autosize=1;strokeColor=none;fillColor=none;" vertex="1" parent="1">
          <mxGeometry x="100" y="290" width="80" height="30" as="geometry" />
        </mxCell>
        <mxCell id="k3dnD8RgvpeTuZdiRV0v-9" value="&lt;font color=&quot;#3333ff&quot; face=&quot;Verdana&quot;&gt;Node&lt;/font&gt;" style="text;html=1;align=center;verticalAlign=middle;resizable=0;points=[];autosize=1;strokeColor=none;fillColor=none;" vertex="1" parent="1">
          <mxGeometry x="100" y="240" width="50" height="30" as="geometry" />
        </mxCell>
        <mxCell id="k3dnD8RgvpeTuZdiRV0v-12" value="&lt;div style=&quot;&quot;&gt;&lt;br&gt;&lt;/div&gt;" style="rounded=0;whiteSpace=wrap;html=1;align=center;fillColor=#bac8d3;strokeColor=#23445d;" vertex="1" parent="1">
          <mxGeometry x="100" y="380" width="130" height="110" as="geometry" />
        </mxCell>
        <mxCell id="k3dnD8RgvpeTuZdiRV0v-41" style="edgeStyle=orthogonalEdgeStyle;rounded=0;orthogonalLoop=1;jettySize=auto;html=1;entryX=0;entryY=0.5;entryDx=0;entryDy=0;" edge="1" parent="1" source="k3dnD8RgvpeTuZdiRV0v-13" target="k3dnD8RgvpeTuZdiRV0v-36">
          <mxGeometry relative="1" as="geometry" />
        </mxCell>
        <mxCell id="k3dnD8RgvpeTuZdiRV0v-13" value="" style="shape=image;verticalLabelPosition=bottom;labelBackgroundColor=default;verticalAlign=top;aspect=fixed;imageAspect=0;image=data:image/svg+xml,PHN2ZyB4bWxuczp4bGluaz0iaHR0cDovL3d3dy53My5vcmcvMTk5OS94bGluayIgeG1sbnM9Imh0dHA6Ly93d3cudzMub3JnLzIwMDAvc3ZnIiBoZWlnaHQ9IjIwMCIgd2lkdGg9IjIwMCIgdmVyc2lvbj0iMS4xIiB2aWV3Qm94PSIwIDAgMTAyNCAxMDI0IiBjbGFzcz0iaWNvbiI+PHBhdGggZmlsbD0iIzEyOTZkYiIgZD0iTTc4LjA4IDkzLjY1MzMzM0M1NC41NzA2NjcgOTMuNDgyNjY3IDM0LjEzMzMzMyAxMDEuNDE4NjY3IDE4LjEzMzMzMyAxMjAuMzItMTguMzA0IDE2My4xMTQ2NjcgMS4yOCAyNjEuNzYgNzYuMjQ1MzMzIDM4MC40NTg2NjdsMC44NTMzMzQgMS4xOTQ2NjZhNDM0LjIxODY2NyA0MzQuMjE4NjY3IDAgMCAwIDguNDA1MzMzIDEyLjY3MmM3My45NDEzMzMgMTEwLjAzNzMzMyAxODEuMjkwNjY3IDE5OS41NTIgMTU5LjcwMTMzMyAzMjMuNjY5MzM0YTE4Mi42MTMzMzMgMTgyLjYxMzMzMyAwIDAgMS0yNS41NTczMzMgNjYuNzMwNjY2QzE1NC4yNCA4ODcuMzM4NjY3IDAuMTI4IDg5OC4wMDUzMzMgMC4xMjggODk4LjAwNTMzM2wxLjc5MiAwLjA0MjY2Ny0xLjkyIDAuMjEzMzMzczE4NS44MTMzMzMgNTcuMzQ0IDM2NC4wNzQ2NjcgMTguNjg4YzI1LjUxNDY2Ny01LjU0NjY2NyA1MC44NTg2NjctMTMuMDEzMzMzIDc1LjQ3NzMzMy0yMi45MTJhNTI2LjEyMjY2NyA1MjYuMTIyNjY3IDAgMCAwIDAuOTgxMzMzLTAuNDI2NjY2YzE0LjYzNDY2Ny01Ljg4OCAyOC40NTg2NjctMTIuMTE3MzMzIDQxLjYtMTguNjQ1MzM0YTUyNi4xMjI2NjcgNTI2LjEyMjY2NyAwIDAgMCAxMi4wMzItNi4xODY2NjZjMTIuMTYtNi40IDIzLjcyMjY2Ny0xMy4wNTYgMzQuNzMwNjY3LTE5LjkyNTMzNGE1MjYuMTIyNjY3IDUyNi4xMjI2NjcgMCAwIDAgNi40ODUzMzMtNC4wNTMzMzNjMTMuNDgyNjY3LTguNzA0IDI2LjAyNjY2Ny0xNy43NDkzMzMgMzcuODg4LTI3LjA5MzMzM2E1MjYuMTIyNjY3IDUyNi4xMjI2NjcgMCAwIDAgNi4yMjkzMzQtNC45NDkzMzRjNi45OTczMzMtNS43MTczMzMgMTMuNzgxMzMzLTExLjUyIDIwLjMwOTMzMy0xNy4zNjUzMzNhNTI2LjEyMjY2NyA1MjYuMTIyNjY3IDAgMCAwIDUuMjQ4LTQuNDhsMS41MzYtMS43MDY2NjdjMC4zNDEzMzMtMC4zNDEzMzMgMC42NC0wLjY4MjY2NyAxLjAyNC0wLjk4MTMzM2E1NDcuOTI1MzMzIDU0Ny45MjUzMzMgMCAwIDAgMzYuNjkzMzMzLTM3Ljg4OGMyLjEzMzMzMy0yLjM4OTMzMyA0LjI2NjY2Ny00Ljc3ODY2NyA2LjMxNDY2Ny03LjIxMDY2NyAyLjUxNzMzMy0yLjkwMTMzMyA1LjAzNDY2Ny01Ljc2IDcuNDY2NjY3LTguNjYxMzMzbDQuMjY2NjY2LTUuMjQ4YzUuNDE4NjY3LTYuNTcwNjY3IDEwLjY2NjY2Ny0xMy4yMjY2NjcgMTUuODcyLTE5Ljg0bDEuMzY1MzM0LTEuNzkyYzI4Ljk3MDY2Ny0zNy41NDY2NjcgNTQuNjEzMzMzLTc1LjkwNCA4Mi40NzQ2NjYtMTEyLjU5NzMzM2w5LjIxNi0xMS44NjEzMzRjMTIuNTQ0LTE1Ljk1NzMzMyAyNS42LTMxLjU3MzMzMyAzOS43NjUzMzQtNDYuNTQ5MzMzbDEuMjgtMS4zMjI2NjdjNC42MDgtNC44NjQgOS4zODY2NjctOS42NDI2NjcgMTQuMjUwNjY2LTE0LjM3ODY2NmwyLjk4NjY2Ny0yLjg1ODY2N2E0NjkuMjA1MzMzIDQ2OS4yMDUzMzMgMCAwIDEgMTEuMjY0LTEwLjM2OGMxLjUzNi0xLjM2NTMzMyAzLjA3Mi0yLjc3MzMzMyA0LjY1MDY2Ny00LjA5NmEyMTMuNDYxMzMzIDIxMy40NjEzMzMgMCAwIDEgMTUuOTU3MzMzLTEyLjUwMTMzM2MwLjUxMi0wLjQyNjY2NyAxLjA2NjY2Ny0wLjc2OCAxLjYyMTMzMy0xLjE1MmEyMTMuNDYxMzMzIDIxMy40NjEzMzMgMCAwIDEgMzYuMjY2NjY3LTIwLjQ4bC0yLjc3MzMzMyAxLjI4IDAuOTM4NjY2LTAuNDI2NjY3IDIuNTYtMS4xNTJhMjM5LjkxNDY2NyAyMzkuOTE0NjY3IDAgMCAxIDY5LjU0NjY2Ny0xNy41Nzg2NjdoMC4wNDI2NjdhMjM5LjkxNDY2NyAyMzkuOTE0NjY3IDAgMCAxIDIyLjc0MTMzMy0xLjEwOTMzM2gyLjk4NjY2N2EyMzkuOTE0NjY3IDIzOS45MTQ2NjcgMCAwIDEgNC45MDY2NjYgMC4wODUzMzNsMTguMjYxMzM0LTAuMTI4YTguNzA0IDguNzA0IDAgMCAwIDMuNzU0NjY2LTAuNjgyNjY2YzIuNjQ1MzMzLTEuMjggMi4wMDUzMzMtNC4zNTItMC41MTItNy45MzZhNTguODggNTguODggMCAwIDAtMTYuNjQtMTQuNjM0NjY3IDE1Ny4zNTQ2NjcgMTU3LjM1NDY2NyAwIDAgMS00LjE4MTMzMy0yLjIxODY2NyAxNjUuMTYyNjY3IDE2NS4xNjI2NjcgMCAwIDEtMS41MzYtMC45Mzg2NjYgMTU3LjM1NDY2NyAxNTcuMzU0NjY3IDAgMCAxLTEwLjkyMjY2Ny02Ljg2OTMzNCAxNjUuMTYyNjY3IDE2NS4xNjI2NjcgMCAwIDEtNS41MDQtNC4wOTYgMTU3LjM1NDY2NyAxNTcuMzU0NjY3IDAgMCAxLTguMjM0NjY2LTYuNGMtOC43NDY2NjctOC41MzMzMzMtMTguNDMyLTMxLjI3NDY2Ny0yMi4zMTQ2NjctMzcuODg4YTg3LjQ2NjY2NyA4Ny40NjY2NjcgMCAwIDAtMTAuMjQtMTQuMDhjLTExLjYwNTMzMy0xMy4wNTYtMjguMzczMzMzLTIyLjc0MTMzMy01NS41NTItMjYuMjQtMzguMDE2LTQuOTA2NjY3LTczLjY4NTMzMyAzLjA3Mi0xMDkuNDQgMTQuMjA4bDQuMjY2NjY3LTEuNDkzMzMzYy00OS44MzQ2NjcgMTUuMTA0LTk5LjU4NCAzNy4xMi0xNTUuOTQ2NjY3IDQwLjEwNjY2N2gtMS43MDY2NjdhMjM2LjkyOCAyMzYuOTI4IDAgMCAxLTI4LjUwMTMzMy0wLjQyNjY2N2wtMi41Ni0wLjE3MDY2N2EyMzMuNTE0NjY3IDIzMy41MTQ2NjcgMCAwIDEtNDkuNDkzMzMzLTkuOTQxMzMzYy01NS45Nzg2NjctMTcuNTc4NjY3LTEzNC41NzA2NjctODAuMjEzMzMzLTIxNS4zMzg2NjctMTQxLjQ4MjY2N2E0ODIyLjA1ODY2NyA0ODIyLjA1ODY2NyAwIDAgMC0yNy43NzYtMjAuOTA2NjY2IDIxOTkuODkzMzMzIDIxOTkuODkzMzMzIDAgMCAwLTMzLjY2NC0yNC43NDY2NjdsLTkuNDcyLTYuNjEzMzMzLTEwLjA2OTMzMy03LjA4MjY2Ny0zLjY2OTMzNC0yLjU2YTc1MS44NzIgNzUxLjg3MiAwIDAgMC02OC43Nzg2NjYtNDIuNTM4NjY3bC0wLjgxMDY2Ny0wLjQyNjY2NmE0MjguMjAyNjY3IDQyOC4yMDI2NjcgMCAwIDAtMTUuNjU4NjY3LTcuOTM2Yy0xLjY2NC0wLjgxMDY2Ny0zLjMyOC0xLjQ5MzMzMy00Ljk5Mi0yLjI2MTMzNGEzMjkuODk4NjY3IDMyOS44OTg2NjcgMCAwIDAtMjMuMzgxMzMzLTkuODEzMzMzbC0yLjEzMzMzMy0wLjcyNTMzM2EyMTQuMzE0NjY3IDIxNC4zMTQ2NjcgMCAwIDAtMTMuNDgyNjY3LTQuMzA5MzM0bC0xLjEwOTMzMy0wLjI5ODY2NmExMzAuMzQ2NjY3IDEzMC4zNDY2NjcgMCAwIDAtMzQuODE2LTUuMzMzMzM0ek04NzguOTMzMzMzIDM2OC42ODI2NjdhMjEuNTA0IDIxLjMzMzMzMyAwIDAgMSAyMS41NDY2NjcgMjEuMzMzMzMzIDIxLjUwNCAyMS4zMzMzMzMgMCAwIDEtMjEuNTQ2NjY3IDIxLjMzMzMzMyAyMS41MDQgMjEuMzMzMzMzIDAgMCAxLTIxLjUwNC0yMS4zMzMzMzMgMjEuNTA0IDIxLjMzMzMzMyAwIDAgMSAyMS41MDQtMjEuMzMzMzMzeiIvPjwvc3ZnPg==;" vertex="1" parent="1">
          <mxGeometry x="200" y="430" width="30" height="30" as="geometry" />
        </mxCell>
        <mxCell id="k3dnD8RgvpeTuZdiRV0v-14" value="&lt;font face=&quot;Comic Sans MS&quot;&gt;fluentd&lt;/font&gt;" style="text;html=1;align=center;verticalAlign=middle;resizable=0;points=[];autosize=1;strokeColor=none;fillColor=none;" vertex="1" parent="1">
          <mxGeometry x="175" y="460" width="60" height="30" as="geometry" />
        </mxCell>
        <mxCell id="k3dnD8RgvpeTuZdiRV0v-15" value="&lt;font face=&quot;Comic Sans MS&quot;&gt;Pod1&amp;nbsp;&lt;/font&gt;" style="text;html=1;align=center;verticalAlign=middle;resizable=0;points=[];autosize=1;strokeColor=none;fillColor=none;" vertex="1" parent="1">
          <mxGeometry x="115" y="400" width="50" height="30" as="geometry" />
        </mxCell>
        <mxCell id="k3dnD8RgvpeTuZdiRV0v-16" value="&lt;font face=&quot;Comic Sans MS&quot;&gt;Pod2&lt;/font&gt;" style="text;html=1;align=center;verticalAlign=middle;resizable=0;points=[];autosize=1;strokeColor=none;fillColor=none;" vertex="1" parent="1">
          <mxGeometry x="165" y="400" width="50" height="30" as="geometry" />
        </mxCell>
        <mxCell id="k3dnD8RgvpeTuZdiRV0v-17" value="&lt;font face=&quot;Comic Sans MS&quot;&gt;......&amp;nbsp; PodN&lt;/font&gt;" style="text;html=1;align=center;verticalAlign=middle;resizable=0;points=[];autosize=1;strokeColor=none;fillColor=none;" vertex="1" parent="1">
          <mxGeometry x="100" y="430" width="80" height="30" as="geometry" />
        </mxCell>
        <mxCell id="k3dnD8RgvpeTuZdiRV0v-18" value="&lt;font color=&quot;#3333ff&quot; face=&quot;Verdana&quot;&gt;Node&lt;/font&gt;" style="text;html=1;align=center;verticalAlign=middle;resizable=0;points=[];autosize=1;strokeColor=none;fillColor=none;" vertex="1" parent="1">
          <mxGeometry x="100" y="380" width="50" height="30" as="geometry" />
        </mxCell>
        <mxCell id="k3dnD8RgvpeTuZdiRV0v-19" value="&lt;div style=&quot;&quot;&gt;&lt;br&gt;&lt;/div&gt;" style="rounded=0;whiteSpace=wrap;html=1;align=center;fillColor=#bac8d3;strokeColor=#23445d;" vertex="1" parent="1">
          <mxGeometry x="100" y="540" width="130" height="110" as="geometry" />
        </mxCell>
        <mxCell id="k3dnD8RgvpeTuZdiRV0v-40" style="edgeStyle=orthogonalEdgeStyle;rounded=0;orthogonalLoop=1;jettySize=auto;html=1;entryX=0;entryY=0.5;entryDx=0;entryDy=0;" edge="1" parent="1" source="k3dnD8RgvpeTuZdiRV0v-20" target="k3dnD8RgvpeTuZdiRV0v-36">
          <mxGeometry relative="1" as="geometry" />
        </mxCell>
        <mxCell id="k3dnD8RgvpeTuZdiRV0v-20" value="" style="shape=image;verticalLabelPosition=bottom;labelBackgroundColor=default;verticalAlign=top;aspect=fixed;imageAspect=0;image=data:image/svg+xml,PHN2ZyB4bWxuczp4bGluaz0iaHR0cDovL3d3dy53My5vcmcvMTk5OS94bGluayIgeG1sbnM9Imh0dHA6Ly93d3cudzMub3JnLzIwMDAvc3ZnIiBoZWlnaHQ9IjIwMCIgd2lkdGg9IjIwMCIgdmVyc2lvbj0iMS4xIiB2aWV3Qm94PSIwIDAgMTAyNCAxMDI0IiBjbGFzcz0iaWNvbiI+PHBhdGggZmlsbD0iIzEyOTZkYiIgZD0iTTc4LjA4IDkzLjY1MzMzM0M1NC41NzA2NjcgOTMuNDgyNjY3IDM0LjEzMzMzMyAxMDEuNDE4NjY3IDE4LjEzMzMzMyAxMjAuMzItMTguMzA0IDE2My4xMTQ2NjcgMS4yOCAyNjEuNzYgNzYuMjQ1MzMzIDM4MC40NTg2NjdsMC44NTMzMzQgMS4xOTQ2NjZhNDM0LjIxODY2NyA0MzQuMjE4NjY3IDAgMCAwIDguNDA1MzMzIDEyLjY3MmM3My45NDEzMzMgMTEwLjAzNzMzMyAxODEuMjkwNjY3IDE5OS41NTIgMTU5LjcwMTMzMyAzMjMuNjY5MzM0YTE4Mi42MTMzMzMgMTgyLjYxMzMzMyAwIDAgMS0yNS41NTczMzMgNjYuNzMwNjY2QzE1NC4yNCA4ODcuMzM4NjY3IDAuMTI4IDg5OC4wMDUzMzMgMC4xMjggODk4LjAwNTMzM2wxLjc5MiAwLjA0MjY2Ny0xLjkyIDAuMjEzMzMzczE4NS44MTMzMzMgNTcuMzQ0IDM2NC4wNzQ2NjcgMTguNjg4YzI1LjUxNDY2Ny01LjU0NjY2NyA1MC44NTg2NjctMTMuMDEzMzMzIDc1LjQ3NzMzMy0yMi45MTJhNTI2LjEyMjY2NyA1MjYuMTIyNjY3IDAgMCAwIDAuOTgxMzMzLTAuNDI2NjY2YzE0LjYzNDY2Ny01Ljg4OCAyOC40NTg2NjctMTIuMTE3MzMzIDQxLjYtMTguNjQ1MzM0YTUyNi4xMjI2NjcgNTI2LjEyMjY2NyAwIDAgMCAxMi4wMzItNi4xODY2NjZjMTIuMTYtNi40IDIzLjcyMjY2Ny0xMy4wNTYgMzQuNzMwNjY3LTE5LjkyNTMzNGE1MjYuMTIyNjY3IDUyNi4xMjI2NjcgMCAwIDAgNi40ODUzMzMtNC4wNTMzMzNjMTMuNDgyNjY3LTguNzA0IDI2LjAyNjY2Ny0xNy43NDkzMzMgMzcuODg4LTI3LjA5MzMzM2E1MjYuMTIyNjY3IDUyNi4xMjI2NjcgMCAwIDAgNi4yMjkzMzQtNC45NDkzMzRjNi45OTczMzMtNS43MTczMzMgMTMuNzgxMzMzLTExLjUyIDIwLjMwOTMzMy0xNy4zNjUzMzNhNTI2LjEyMjY2NyA1MjYuMTIyNjY3IDAgMCAwIDUuMjQ4LTQuNDhsMS41MzYtMS43MDY2NjdjMC4zNDEzMzMtMC4zNDEzMzMgMC42NC0wLjY4MjY2NyAxLjAyNC0wLjk4MTMzM2E1NDcuOTI1MzMzIDU0Ny45MjUzMzMgMCAwIDAgMzYuNjkzMzMzLTM3Ljg4OGMyLjEzMzMzMy0yLjM4OTMzMyA0LjI2NjY2Ny00Ljc3ODY2NyA2LjMxNDY2Ny03LjIxMDY2NyAyLjUxNzMzMy0yLjkwMTMzMyA1LjAzNDY2Ny01Ljc2IDcuNDY2NjY3LTguNjYxMzMzbDQuMjY2NjY2LTUuMjQ4YzUuNDE4NjY3LTYuNTcwNjY3IDEwLjY2NjY2Ny0xMy4yMjY2NjcgMTUuODcyLTE5Ljg0bDEuMzY1MzM0LTEuNzkyYzI4Ljk3MDY2Ny0zNy41NDY2NjcgNTQuNjEzMzMzLTc1LjkwNCA4Mi40NzQ2NjYtMTEyLjU5NzMzM2w5LjIxNi0xMS44NjEzMzRjMTIuNTQ0LTE1Ljk1NzMzMyAyNS42LTMxLjU3MzMzMyAzOS43NjUzMzQtNDYuNTQ5MzMzbDEuMjgtMS4zMjI2NjdjNC42MDgtNC44NjQgOS4zODY2NjctOS42NDI2NjcgMTQuMjUwNjY2LTE0LjM3ODY2NmwyLjk4NjY2Ny0yLjg1ODY2N2E0NjkuMjA1MzMzIDQ2OS4yMDUzMzMgMCAwIDEgMTEuMjY0LTEwLjM2OGMxLjUzNi0xLjM2NTMzMyAzLjA3Mi0yLjc3MzMzMyA0LjY1MDY2Ny00LjA5NmEyMTMuNDYxMzMzIDIxMy40NjEzMzMgMCAwIDEgMTUuOTU3MzMzLTEyLjUwMTMzM2MwLjUxMi0wLjQyNjY2NyAxLjA2NjY2Ny0wLjc2OCAxLjYyMTMzMy0xLjE1MmEyMTMuNDYxMzMzIDIxMy40NjEzMzMgMCAwIDEgMzYuMjY2NjY3LTIwLjQ4bC0yLjc3MzMzMyAxLjI4IDAuOTM4NjY2LTAuNDI2NjY3IDIuNTYtMS4xNTJhMjM5LjkxNDY2NyAyMzkuOTE0NjY3IDAgMCAxIDY5LjU0NjY2Ny0xNy41Nzg2NjdoMC4wNDI2NjdhMjM5LjkxNDY2NyAyMzkuOTE0NjY3IDAgMCAxIDIyLjc0MTMzMy0xLjEwOTMzM2gyLjk4NjY2N2EyMzkuOTE0NjY3IDIzOS45MTQ2NjcgMCAwIDEgNC45MDY2NjYgMC4wODUzMzNsMTguMjYxMzM0LTAuMTI4YTguNzA0IDguNzA0IDAgMCAwIDMuNzU0NjY2LTAuNjgyNjY2YzIuNjQ1MzMzLTEuMjggMi4wMDUzMzMtNC4zNTItMC41MTItNy45MzZhNTguODggNTguODggMCAwIDAtMTYuNjQtMTQuNjM0NjY3IDE1Ny4zNTQ2NjcgMTU3LjM1NDY2NyAwIDAgMS00LjE4MTMzMy0yLjIxODY2NyAxNjUuMTYyNjY3IDE2NS4xNjI2NjcgMCAwIDEtMS41MzYtMC45Mzg2NjYgMTU3LjM1NDY2NyAxNTcuMzU0NjY3IDAgMCAxLTEwLjkyMjY2Ny02Ljg2OTMzNCAxNjUuMTYyNjY3IDE2NS4xNjI2NjcgMCAwIDEtNS41MDQtNC4wOTYgMTU3LjM1NDY2NyAxNTcuMzU0NjY3IDAgMCAxLTguMjM0NjY2LTYuNGMtOC43NDY2NjctOC41MzMzMzMtMTguNDMyLTMxLjI3NDY2Ny0yMi4zMTQ2NjctMzcuODg4YTg3LjQ2NjY2NyA4Ny40NjY2NjcgMCAwIDAtMTAuMjQtMTQuMDhjLTExLjYwNTMzMy0xMy4wNTYtMjguMzczMzMzLTIyLjc0MTMzMy01NS41NTItMjYuMjQtMzguMDE2LTQuOTA2NjY3LTczLjY4NTMzMyAzLjA3Mi0xMDkuNDQgMTQuMjA4bDQuMjY2NjY3LTEuNDkzMzMzYy00OS44MzQ2NjcgMTUuMTA0LTk5LjU4NCAzNy4xMi0xNTUuOTQ2NjY3IDQwLjEwNjY2N2gtMS43MDY2NjdhMjM2LjkyOCAyMzYuOTI4IDAgMCAxLTI4LjUwMTMzMy0wLjQyNjY2N2wtMi41Ni0wLjE3MDY2N2EyMzMuNTE0NjY3IDIzMy41MTQ2NjcgMCAwIDEtNDkuNDkzMzMzLTkuOTQxMzMzYy01NS45Nzg2NjctMTcuNTc4NjY3LTEzNC41NzA2NjctODAuMjEzMzMzLTIxNS4zMzg2NjctMTQxLjQ4MjY2N2E0ODIyLjA1ODY2NyA0ODIyLjA1ODY2NyAwIDAgMC0yNy43NzYtMjAuOTA2NjY2IDIxOTkuODkzMzMzIDIxOTkuODkzMzMzIDAgMCAwLTMzLjY2NC0yNC43NDY2NjdsLTkuNDcyLTYuNjEzMzMzLTEwLjA2OTMzMy03LjA4MjY2Ny0zLjY2OTMzNC0yLjU2YTc1MS44NzIgNzUxLjg3MiAwIDAgMC02OC43Nzg2NjYtNDIuNTM4NjY3bC0wLjgxMDY2Ny0wLjQyNjY2NmE0MjguMjAyNjY3IDQyOC4yMDI2NjcgMCAwIDAtMTUuNjU4NjY3LTcuOTM2Yy0xLjY2NC0wLjgxMDY2Ny0zLjMyOC0xLjQ5MzMzMy00Ljk5Mi0yLjI2MTMzNGEzMjkuODk4NjY3IDMyOS44OTg2NjcgMCAwIDAtMjMuMzgxMzMzLTkuODEzMzMzbC0yLjEzMzMzMy0wLjcyNTMzM2EyMTQuMzE0NjY3IDIxNC4zMTQ2NjcgMCAwIDAtMTMuNDgyNjY3LTQuMzA5MzM0bC0xLjEwOTMzMy0wLjI5ODY2NmExMzAuMzQ2NjY3IDEzMC4zNDY2NjcgMCAwIDAtMzQuODE2LTUuMzMzMzM0ek04NzguOTMzMzMzIDM2OC42ODI2NjdhMjEuNTA0IDIxLjMzMzMzMyAwIDAgMSAyMS41NDY2NjcgMjEuMzMzMzMzIDIxLjUwNCAyMS4zMzMzMzMgMCAwIDEtMjEuNTQ2NjY3IDIxLjMzMzMzMyAyMS41MDQgMjEuMzMzMzMzIDAgMCAxLTIxLjUwNC0yMS4zMzMzMzMgMjEuNTA0IDIxLjMzMzMzMyAwIDAgMSAyMS41MDQtMjEuMzMzMzMzeiIvPjwvc3ZnPg==;" vertex="1" parent="1">
          <mxGeometry x="200" y="590" width="30" height="30" as="geometry" />
        </mxCell>
        <mxCell id="k3dnD8RgvpeTuZdiRV0v-21" value="&lt;font face=&quot;Comic Sans MS&quot;&gt;fluentd&lt;/font&gt;" style="text;html=1;align=center;verticalAlign=middle;resizable=0;points=[];autosize=1;strokeColor=none;fillColor=none;" vertex="1" parent="1">
          <mxGeometry x="175" y="620" width="60" height="30" as="geometry" />
        </mxCell>
        <mxCell id="k3dnD8RgvpeTuZdiRV0v-22" value="&lt;font face=&quot;Comic Sans MS&quot;&gt;Pod1&amp;nbsp;&lt;/font&gt;" style="text;html=1;align=center;verticalAlign=middle;resizable=0;points=[];autosize=1;strokeColor=none;fillColor=none;" vertex="1" parent="1">
          <mxGeometry x="115" y="560" width="50" height="30" as="geometry" />
        </mxCell>
        <mxCell id="k3dnD8RgvpeTuZdiRV0v-23" value="&lt;font face=&quot;Comic Sans MS&quot;&gt;Pod2&lt;/font&gt;" style="text;html=1;align=center;verticalAlign=middle;resizable=0;points=[];autosize=1;strokeColor=none;fillColor=none;" vertex="1" parent="1">
          <mxGeometry x="165" y="560" width="50" height="30" as="geometry" />
        </mxCell>
        <mxCell id="k3dnD8RgvpeTuZdiRV0v-24" value="&lt;font face=&quot;Comic Sans MS&quot;&gt;......&amp;nbsp; PodN&lt;/font&gt;" style="text;html=1;align=center;verticalAlign=middle;resizable=0;points=[];autosize=1;strokeColor=none;fillColor=none;" vertex="1" parent="1">
          <mxGeometry x="100" y="590" width="80" height="30" as="geometry" />
        </mxCell>
        <mxCell id="k3dnD8RgvpeTuZdiRV0v-25" value="&lt;font color=&quot;#3333ff&quot; face=&quot;Verdana&quot;&gt;Node&lt;/font&gt;" style="text;html=1;align=center;verticalAlign=middle;resizable=0;points=[];autosize=1;strokeColor=none;fillColor=none;" vertex="1" parent="1">
          <mxGeometry x="100" y="540" width="50" height="30" as="geometry" />
        </mxCell>
        <mxCell id="k3dnD8RgvpeTuZdiRV0v-27" value="&lt;font style=&quot;font-size: 14px;&quot; face=&quot;Comic Sans MS&quot;&gt;k8s集群&lt;/font&gt;" style="text;html=1;align=center;verticalAlign=middle;resizable=0;points=[];autosize=1;strokeColor=none;fillColor=none;" vertex="1" parent="1">
          <mxGeometry x="57.5" y="190" width="70" height="30" as="geometry" />
        </mxCell>
        <mxCell id="k3dnD8RgvpeTuZdiRV0v-28" value="&lt;span style=&quot;font-size: 18px;&quot;&gt;.&lt;/span&gt;&lt;span style=&quot;font-size: 18px; background-color: initial;&quot;&gt;.&lt;/span&gt;&lt;span style=&quot;font-size: 18px; background-color: initial;&quot;&gt;.&lt;/span&gt;&lt;span style=&quot;font-size: 18px; background-color: initial;&quot;&gt;......&lt;/span&gt;" style="text;html=1;align=center;verticalAlign=middle;resizable=0;points=[];autosize=1;strokeColor=none;fillColor=none;" vertex="1" parent="1">
          <mxGeometry x="127.5" y="490" width="70" height="40" as="geometry" />
        </mxCell>
        <mxCell id="k3dnD8RgvpeTuZdiRV0v-30" value="&lt;font face=&quot;Comic Sans MS&quot; style=&quot;font-size: 14px;&quot;&gt;边缘设备&lt;/font&gt;" style="text;html=1;align=center;verticalAlign=middle;resizable=0;points=[];autosize=1;strokeColor=none;fillColor=none;" vertex="1" parent="1">
          <mxGeometry x="210" y="78" width="80" height="30" as="geometry" />
        </mxCell>
        <mxCell id="k3dnD8RgvpeTuZdiRV0v-32" style="rounded=0;orthogonalLoop=1;jettySize=auto;html=1;entryX=0.289;entryY=0.863;entryDx=0;entryDy=0;entryPerimeter=0;dashed=1;" edge="1" parent="1" source="k3dnD8RgvpeTuZdiRV0v-1" target="k3dnD8RgvpeTuZdiRV0v-30">
          <mxGeometry relative="1" as="geometry" />
        </mxCell>
        <mxCell id="k3dnD8RgvpeTuZdiRV0v-35" value="" style="shape=image;verticalLabelPosition=bottom;labelBackgroundColor=default;verticalAlign=top;aspect=fixed;imageAspect=0;image=data:image/png,iVBORw0KGgoAAAANSUhEUgAAAMgAAADICAYAAACtWK6eAAAAAXNSR0IArs4c6QAAD9RJREFUeF7tnQ0S3LYNhZ2TpT1Z2pO1PllrumZNy9KKAB5+iZ3xOM5KJAi8jwAprfTHl/5MD/zty5cv48+fi0vGv8fn3z/+/rp89492XX0P/FF/iI8jnOL/6wcYHFcMcAY04+8JEaedPieoB04EZIAhgeIplP/88UVnlqBi55h1EiBaYFz9PkBpSDhqDHjOKYAMwY6sYflpUCy9rdTXCYD8S7DGkLp9rEv+Lm2kz/fzQGVArEqqnegNSHoRv+OpYMdUBWTAMTJHpE+XXJGisWlLVUD+szl+68M6k1h7XNhfRUA81xw74WhIdrwU5JhqgHjsVlFD2Qt3qsccj68ESAY4ZqgbEkfRU7quBEjUdcdTPLrUoijV6dgqgKCzx93NieMmxnn/FiJcnUUQXlRuowogiOwxBDu2Yt+uV8zbSBBX5juLKAtc2nwFQBDZgyPU0a80q3QWkSpY+fwKgEiyx27W+BQGKaAcOJVl0c1PD2QHRCJO5OwdxY5WNtgDJwOCHjv3AiUSVLA8ujm0SKw9yi2vNO6Lktz/1WWWtXI2+8sMCLes0YBjuruzyKbwshzWgGAjxc0iXWZh4wBr7URAtMfMySINCEzS2Ia0xYK19tfWogqRY9cYWeZYaMbZte3MQeEIUXP9MQPJXRtljoWriDU7zxwUzg6WBSDcdUjmWGhq1LXtzEFpQFylc0bnmQHpEusMjbqO8jRALHaLeg3iKmls56cBYrFbxMlsFnZhlXNIaycCon1bB2dtZJHZDpE0dpiZAeHuFmmKkVteWeyuYZVzSGuZARkh4szW4zytLBLNnkNkrDfM7IBw632NLMLNHr3+0NO3uOVTARmOQ0IigaPLK7GM9RrIDgh3HTI9ihCnBI5hB8IGPYUc3nJ2QEb4uGXWDD33d+mop8dHicF8pNHTo43m017envpSCqkowZE4VZpF1myy867B+bJPxGN/vLPHhHz4gPrMr/mIpNLAVAAEkUWugM73Dc61yhSP9DE/1348/I/KfOtYvEGXTLAfz/UIkMZgUFlEw7anNq1FpQHG3cRS6v2MVQAZgZIulivDYe0ba/jVYlcJEI1SS8vxVn63yBpPPkJuo2vF4bVdq0C9GgI6IEOpZTW7RvGF1l0LIMl8bqYaIHM3Jtr7CdedMosa3bqkehOr1aTwZgf5+4qARIXESiTR4LCeHMgQfDqhKiDRILGCI0pZ9aS5dOVWZUBmkKRX2iUzEvcqPbdP7t3E3P4456XSXCpjOdH4cY5H2WG9i+MxRk5IrP3CsfH/55wCyBgw8s1Qn5xunTXm2BC3vojERDjZquQkmHR/6EmATA8g3gx1500PMKYdWqXVGBP1Hq1dUabQXgojdz1OPA6VUTzBQGaPedPh03sakTdpDrtTZJGTAVl5ol5x9oZitR2RPai7S6j1DrVf4hwoP7wB+elDym5XlNlPKlTpgtm7fzkBLy00ILkBkWQPFORSSEJrMLRx6tPDrx1kyyCSi4IoOKYHKb67hjV0mdWA5M0gkplbI+5cSKRlnuo8quEoVYMVG6cEGD0Dc4ZFsXdtX8t2bkZrQDjRdziHIjgtkVGGzV1/aE6KFB+uY9W0ieLT344Na5hoVLyTKcH1BoQ7W2vbTfHhGqWw65AGJOcaJCogXLsaEN6kbnoWZfbTnonfBs5doFtMiJzSrwF5i3iA7xsQTBA4gHhPOI8jt5hRMG7Xb6UBwfiY4sfZYwOC8b1qK5TAege0Wonl7c/OIBtoNSAbTto4pEusDSdlPCQTIFF3i6LaxdZjr0F+/iCI8qigcfX36zevWzzC5y64XCFqX7Xmln69i8VGWOdEyVPN7yyaD7u2BIZTygzbNSfFiDaJFKTpLJFhCidTfxTFNcFqwUkpCdexaNnHzR7aWY0bx+/nnQCIFRjXQGhnFS4gw06NkoabPbSAFYExT64OiEREEAf/+O31zot5KP1xZ+vZB3rWlvhZA1aKLz8eWxUQ7iIW5tibhlAzpUSMGqWWFNbQGgxtHFOtKAExu/94mgQSDeilmUTqa4k/NOLzW5uVANEQkFYQqMKQztJv4/CyJ7z+whv4Ftkf32eCYw5pR5TWGwyfNhbQtuyMfzP8eodVAER7dtXz/ueHp2Ue147PUmgvhZEfvF1BRNeZFD1T74jV+pgU2SP7dZAKcFzLrUpjeoIuDRzZAeFemLKeLXf703xQ9K4N2sdJd8207SuziyXdXjR3dHf43QOhLwrexSjjGuSEMoTD03yg9jiXcmcypy/OOalKqznAbIBk3M7liIl6zt1CPxIk6TJHVkA0S6v1/RjDP/Pf01fzRTLrrfJUIaOPf3sNg6a/dsbyZt9OG67HZMogWqWVJIhaNu2IYrdk8bIx3YI8+xoEvWslAePqS0sRcuzWeu3cnaY49u1MCC7HZMkgaAHuzr6UoKBtfBLfqOe5H20bNfzKHSvkvCyAIGtpzSBqbiIg7UZmFO/f50NAeGokAyDIWQ8psiefoiHRLlk4LzNdt5SvmxmqgrVu/CRALOBYd7wQ26weC911t26OZ4WgNBBXADMAglicW8IxfYzKfGmvIVjP9hr9RQcEVa54jROxdmpANJS/2aaXcDbN+/5gtr92D344ziN7IEstjzJL6PI6p0cHBDEDe4+xwhjqKJ44Em/xvJkrXX94Zg9kFuky600pSt9HBgSx/mhAlIRzSrPVAYkyPmmZ1RnEicgoArobvjSDRFrcSgGJkAmdJOrbbWRApDtYkURVaSy+ijXuvQGxcXilbGjjsSC9NCA2gWhAbPwM76UBgbv0tkFpiRVpPWXjsSC9VAYkkqikgERaTwWRro0ZkQGpVJY0IDZ6hvdSGZDhrCjj621euHRtGowiII3rIKPNKBfYpLfMRBmHjSoD9RIZkOEmqbAirEOk5VUk0ANJ18aU6IBIS5MqgESPk41aHXqJ7njE7Ou5A5TdfgdJxuoyOiDSnazpba9xSjPgsN8T8FhqdbDGSziUoUrXIV4iQ2SPSDtxlJiVOTYDIIhZ2BoSFByegMynmxz1FJMr2RkAQZVZlrtBiKw3Y6VdYk0Q5m//57/vssCE5eu3L+fztMpki7uBZABk2I3KItqZROv9gmhIVig+AbEj/mHbAKdkpskCCDKLaEGCLKuehCkFRQtgLZ/uAKp6TBZA0FkEGVBN0d0FnwuJBcBIv6oKf7fxTIBoBZgruOFjLZt24rd7+wk6++7YVgaUTIBoZJE12PMp5Z/qaWTtviu0T8e9we0JcAlIsgHiMRtGfz3z0+003nBMsCPc7sOejLIB4l3WsB1tcOKaTZC7fijTM2otzO8lqEGIKADqGDSOH5D8+W3LVbp1q2FbykySkuofAkC8f0NDCN3mswfe1kzhfJcVkGql1hROlHWDplBTQZIZkCqQXAVzAiS7W9SaoG61nR2Q7JA8zabWFx+3xAI8KM16pAIgWSHZKTU8ssn6gs7JxPWGRgQrKbJIFUCyQbIDxxShBSSUN+ly3op7B1SKLFIJEEtBcWdQihCvfWiBQoF1tQlhT/gsUhGQqNmEK0S0KNf2pAKV3tkQPotUBSRSNpFkjadMhbhQKoVjXZ9Irkmh7OBm9Y/nVQdkZpPxt/RtudQAaICx2iCBBJHNVlskmaQBoSpL8XhE3fxmnjYY0uyIhmPawwU2dJl1Qga5EzRqJ2a2vW6NWv30lPu7d62YS7KIlk1vk9nr92ENe7Ucd8AI7PhDvcnP+7fYHEC0soc0i4QtsxqQn6BRyi/vsoA7W2sDwrWrAcFN+GotZQKEYuvqMIsJkZPZGhA1WeMapojOO4NQbM0AiHZmY6vEYkZhG2d8IkV0DchzcDi7WQ2Isdg53TUgHK/9fg6nxGpAML5XbSUTINzFsEXF0ICoytSv8RMAsVgMcwCxsIulLIsZhWWYw0kNiNzpFB+uvTUgct+rt0AJrvcifTiDM1Nr281ZoI+xhJ2owxqmjsPvHWQDhCtGrdma4r+r98PqMKxhDcirB7iAaGURLiBhd7BCp7ZXeeAPoARYS2SUUXF3skYfaFFSfHcdI9oWig9fj+0M8tNFlCBHAIS7DpkjRgmT4rc7QYbWYGjjXvHGHkAJdBRAuGUWChKKz+6ihYIUq4SltQYkdwaRlFkSSFDP7WpA1NDGNkwN+HyXyPzhFdYaWmvSLLKC8vauQaqfPo0kPBynL9JnsIcfJE9DH4EeHy9YEFnkKuQ5AYz/P35INj8SP1370Npupk0vL0efWGIhZ8Gre71mRVQWgYrrQ2NefiKP7yRANMGIAArnyjpZMKAT0ugujaHCwEh3WzjdW8+SGqUWZ9xv51j75c2ej99XB8Qyazw52lIQHhMBRYCWvqDY9XhsZUAizaiWwogKiaUPIHCMRqoCEgmOGSxLgUSDxHLsMDiqAhIRjpMhSQtHRUAiwzEhsdz/984klmOFZo7ZWLUSK8v1AEu/zydHWj682+r5xCpQrI1aBkp7MN6zJWV8Hjc7WvinDBjVMkiG0uoKkFf5oQWK13goExP52CoZBBn0+XT2r9/u0Zr/Pe9Boj7g+i0gnv6Xll7TN/Mh3m9jTfm9Z4BQDkPBQSkPUH1GmnXXmy3nDYoDovV1DuukYfWaB5ROWO00IP8TAHcWlILisRZhCeXUkyoAIrlJDyFQKSSRssipHJS91UQiTuQFLIkdCEhb2EoeyJ5BuNc9NETJtaXiBVsludo3mx0QbnmFzB4zapKt5i6z7LW/1WNmQLhljQYc09kRbdoSQh9074EGBKsMbhbRKPmwIzu0tcyAcGt+7TFz7GpAggKoLRbNYUcVIrfMyhwLzTi7tp05KBxANNcf0nVI5li4iliz88xB4exgWQDCXYf0Tpam0pltNyBMx304jQtI5ljgvRikxcxB4ZRYFovhXoMEETfCjAYE4cVf22hA8D51a/E0QCxu6+CsjSwym5vIMnecGRDuTK29GG5AMhNxsT0zINzFsOZszYXWYnetkGzthpIZkOElzmw9ztPIIlxgteyxU1HhnrIDwtnJmuFEQyKxJXscyiKSPTCSWRtZanFLqyGsLq8C43UyICMsCEgkmaMBCQyHxZanxfClAuWKFPVqheyTlEWM3fqoEBxJmbU6fvddgygwuGC6ieXEjisAMuKGyCJr/NeXWM7/j35oXK89EhBXBRBUFrEMWQNi6W1mX1UAGcOX7CQx3cc+reFgu872xEqAaJRaGtFA7Jxp2NVt3nigGiAZIKno87JwVQxW5PUI+up9WWFGGVhFQIZvI0LS644oqifYURWQ6QL09i/Btb8c2pmD6znn86oD4r271QtyZ4FLuz8BEC9IuqSSqjPA+acAMl1tca1E8kKeAJJoE1YPnAaIJigNRkG2TgVkBUVyj9WEYrR3xDv7CjLwcUinA7I65+klllfxH/ciy9OgWMf7X5YPZ/YKv/anAAAAAElFTkSuQmCC;" vertex="1" parent="1">
          <mxGeometry x="447.5" y="410" width="45" height="45" as="geometry" />
        </mxCell>
        <mxCell id="k3dnD8RgvpeTuZdiRV0v-37" value="&lt;font face=&quot;Comic Sans MS&quot;&gt;Kafka 集群&lt;/font&gt;" style="text;html=1;align=center;verticalAlign=middle;resizable=0;points=[];autosize=1;strokeColor=none;fillColor=none;" vertex="1" parent="1">
          <mxGeometry x="430" y="455" width="80" height="30" as="geometry" />
        </mxCell>
        <mxCell id="k3dnD8RgvpeTuZdiRV0v-51" style="edgeStyle=orthogonalEdgeStyle;rounded=0;orthogonalLoop=1;jettySize=auto;html=1;entryX=0;entryY=0.5;entryDx=0;entryDy=0;" edge="1" parent="1" source="k3dnD8RgvpeTuZdiRV0v-42" target="k3dnD8RgvpeTuZdiRV0v-48">
          <mxGeometry relative="1" as="geometry" />
        </mxCell>
        <mxCell id="k3dnD8RgvpeTuZdiRV0v-42" value="" style="rounded=0;whiteSpace=wrap;html=1;" vertex="1" parent="1">
          <mxGeometry x="620" y="515" width="80" height="85" as="geometry" />
        </mxCell>
        <mxCell id="k3dnD8RgvpeTuZdiRV0v-44" value="" style="shape=image;verticalLabelPosition=bottom;labelBackgroundColor=default;verticalAlign=top;aspect=fixed;imageAspect=0;image=data:image/png,iVBORw0KGgoAAAANSUhEUgAAAMgAAADICAYAAACtWK6eAAAAAXNSR0IArs4c6QAAE3JJREFUeF7tnVuO3LgOhqvylABZ0cwBkqws6ZVNB5jJihrIPE0d2C67fSd/ipQomf0yl5JlieTHiyTb91v8hQRCAocSuIdsQgIhgWMJBCBhHSGBEwkEIAXN4/P/fn+9Pe7fpyE8bl/7f7/fXvt/Ph4/3359+lFwiJe/dQBSwAQmMEYgqDF0wAQslJRMfg9ATMS63ykMxm43j5eIKvmUFoBkkPXnP37/uN1mqZTKPQMUFTESnQQghlK2AWM94ADFUIW3AERZujpplGRQAYpEatQ1AQglIebv5cCIiMJUkahZACIS2/tFfsAIUBJVuXt5ACKUql8wtqB0/ydWvmSKDkBAudUDRoACqjYiSIrA6gUjQEnRe0QQQnrtgLE30Vj5ouAJQA4k1DYYUdBTYIy/ByArSV0LjACFAiUAeUooz643pQ4vv0fqFREkwGDQGKBcMoJcO41icLFpcl1QLgVIgCGBY37N9UC5BCABRioY1y3mmwYkwNAG43qbjk0CEmBYg3EdUJoCJMDIDUb7oDQBSIBRGox2j7FUDUiA4RGMtgr6KgHpd73v9y837mtzarCj5sdY5xJxVYA0fRzk+e6rnpOm4a8LlCoAaRqMnoit0Vxxzh6DqFtArlNfHHvU9iHZdw6eQHEHyHXAGMzg7dfHQx30svjv/pcng7Ebi8/Uyw0gVwNjNLQzQLo2n//492FnlB57frzcPtxe3/7+NLzAu/BfcUCuCsZQjN9e3/75+O3MBj7/+e9f11yte7wMEbbs2+2LAXJpMEYiOIBcLoJs91FKgpIdkABjaQCRYjFzqEKfgMgGSIBxYAgfHt/O8u3r1SAcYPIV9OaABBiEwk8AudYqFgeMbfplXaOYARJgcBV+9X0QrpyO2tlGExNArrHBlarY8foAREeSNqCoAxJwgOo+WckKWYKy3Dmyg/awbq8KSOTMAnWcAXLZPRCBHMdLiEUPtGddQEy+xYdOqbL2AYiuwhh7S8gN1QCJdAAR+6xtACIU3MllilFED5BIB2SKDkBkcju7SjGK6AFy+SMRQj0HIELByfeXkBuqABLpFSJy/mZXyNVGrkivOoBEeoXIfNaWXru/7mleoUjHy5TSLB1AIr0SapMBSKwMCmV7/jAat9NkQGLvgyvq5cpV/1+Px0/qLFEc2RHId7xEYTUrHZDwcMca7I5oP0HQekpucEi3r32/Tb/9JAGMAERBeFZddFDcn0/DZXpsdIImgFlqVaEOUYggV3tmeoesJxRenqOOF+s9dRSAWIUBRr/OoNgb8Xs6dv/OmFGbTRLrkKQIcsl1+grA2IXlqrXiZQCZ5fZTkXrL6BkrBWMNSxGnVlJ3iWlWWgTJtkG4v1+QRdmNgFEMlAMPnkV3/Uof/Wqls9wyDZBMG4Tl3j5Ib+TVnribGir1QopMDpZ6c4wJIPk2CGkjVR9Lo1HjyBBMIGHk/ib33ZskYyxHshFHkGyTYz5GqQcJDWTtUcMcFKZBerOhPbnIAckUHpEcMlngTMVqANIBzd03Qdqmji2nDLMdxEyoQ+SAZKo/eoUDhitSsHFKtdjp7o+e3L5C4C+c0bBLr3V0RXVJGNFT5jfXS+sQESB66Qzf3yETxCCxSanIQ4aAVzv3tHYveYY8vGM4UCc7t0oZIMU2nfjGzIOY3x8HZRKKRSf8e/MNVf/TAeS9wejL0wtH2mAbAOCKAenzkxfqiPh8gscKxvo5U4fs7BP//lhEHNb+OUfpuSZ2KEMkCnYp1eP+vdinHICxKgDi4YAiYGCdcrq//ph4t/vOv/YUjKQ8mj8GGBBhpCKdQCe7D4/peybsRYZcCzpnE7geIKM0+IbG9ZhUOyyVOuqNP+40QPCoezRidDWtWDp1NAFBmgXXIOnKosxP8jvf2CS9j9fogIGDrSfzGuWUorHVtdcF5CkIgQC44tczUnys6p7YUk5JaSdXG8J2gjQLjyAe8slT+eh7SXU4uvEDRqoOSC+/SuQkZGH3siyA5NwglAoHMD7qFiZwuABEFxIzOVEKAn9H9tO6rqEIYuPJwBmymut4R3IPgDWWg0YAxLZyV5JVsb0xUAmA3HFAahGCIJSuxWz9bUDUk5mOJ1FetgCDAJDNMYeARRD39cdMOqlKN3YGbgABd8L37M8UXtLgwQagXWCA1FB/TPLCPMWRmK1yax+A+JYRaPrs5ojs2YC0HEYpyVpAgiipG5+6lwZzcVpGHk5XUKN8/g7MnQ+IccrBnBqvGSAAXodDK01QigECphhc+WjKhntPcTvAPhoERCdtME25BEaqs6JmLJtaalRA/gAgdYRQ1DNLvFByugkoaBxfEiAKhThHTsly4dxEow0g/8YAsfWQ26Xg3z+G08HgH6CgdEAyy6SWKMJMs1iA1JJf5ogeKpDkACRT1NjIw/NZrPlgrwcI7im7tOXtn4/T8w1gHFg0x5yIbKzsh40EAO7NfUyZUMeTlA6mKAG5likjXgSpIGzCSpyvyjG9CSV/PiQCQNiriHjfZ3AMv2F9VlGLqALifYOQOdm5IWz2FbQgYTxaisLcLzFTqYtiSrUHOjpm9X0byjsJfufMiYwgpGIEA9O/BPRwh94Y6+dsHsfRRH4Piz75NRU27irSLIZTpAFhh3Z9s+f2yPEEp9FjcSPMEGhIuhb371ovUli8IEIxavRRitA1IudWHCsNiPv6AzNoyggkOTcXZM/tLOTiPs1ipOY0IN7rD7SAZM8HA8+z8VNjQ9IhKIq4d670p6JPAakhTEIKg9PF9iFB4OhBY+TtI5A12A81n3NAYIOifJXy74wQuaw9BDvf4D2UZ2jWnfgNLaA83KdZBPB1A2KWXu3YJeA5zaxaqeNUzw5Fbe9pFgE8AYjzA4qA0fKKUMICgfsp2bJ6N6lwNJdmtQwI5MnU0sV66xIVJ9GvWvO/+6cCpLqbWHZ4ZkeHEURNmIaTwwDRjIb1QaKqTwCQYX9FU/YGBnWSGdQLCKAkGy9WDySqcIz2CaSb7gE5saVjQLwXV0CBbgNIZyn+ITGBA13u9W5LIkC8h0XAOM2MBDSUveRg+jzb3o8fbq/cTwzs9q1Wd6Wt6sF7LQZZFNXlUbq+G0HsPC41TOB3KMQL9j+4QwFSvXWXLDkD89z0b+q5+dHT1EFx9US1O5DzPiCWnocaKPd3wHBMPVgKIBwDtu6fK+91O2BcLEcgHYfadfvAVwtIuRWstUb4nnR+JeRVAWMU3wM1NGBMVQByMJ8DQJwvy93oQ2ZLQ7GbDwLqOCYIjmkiUhB9zN39StaBTW0AqYJ2F4BIDTahHgLSyhyRBHEONQCyd3BxC0gN9UcpQBQeUEpzQDIol5Gr+y/Bq4p2UrAABM1LM7bPopwOiN6eHi8py60Lb049W34iQ2TOHFUMqZ4cGGQ8VUSQnTpkJ4LY5awcpXHbmCnnGSW6cWhBsZ6TdFUNmTNXjinRhTuetKiJziShfQCyIzyDKEGpSAZIWnpFjWkb5W5fb/f7l7N3cTUHyE7qvoggstUVRPR6bbnK6e64Ce8ZosTZTGUeNR8gm4h3kIpxdSCbr56tQD2tFkKqBYR6VHLhEbsNOeVaAhL6qrHIYIQrWCnj3Lt2Ohpzv3/hvpVSNF/tgXP7W6VZS0A4O7vcG1m3c2Iw0mli0bpc9JDOb5uy3Qcn5f3vFBD3BxRn0q0ckHEm56DUDQZvjv6ImaeOUwSpKgz2Mm3DeDZGpLDX4s3ksGjpYPQz5/sOSCUbhP0bChX3JRyo4xJDEL9FpYh03p1vXYAAB+SKyDVuSkpAtsRNdqvbYGZnM0CcbhAW2KfQlXb0tpbAtINP7LOUlNxYh/SAFK0/RgD6suLxsxfKh+GIh9VOtpbge7l1f//dvnZj9jDexZjGiToZ25ncd5+s7ADq7eI2yDnn37MOGQDJXn88XrwYFEfmk9E9nof8jhRWuD4i9diNb3RCT0fkAWqWDnLbaDFAHC/PskE402jBOkl8IHAFztuvT89DjBzTzdsmWw3z1OMzguSqP3wszS7SEIswXsAJmKTJc3CcpGkm89xjPDsgBT3rOP9swm0FkN3gUN7J5YoiXaF+J/NWrQiaCMi6+JSmATmEyz3EpyXayQFkOAkhnduiCE+MRjl0OCwWPb65BmTaXDpayXiugHEPzfULEgkPLPEMupyHtTccbG6T8+1Ttb2VqMdLv1oJ1jziWounwPdW99vr3V6o81HRAiah2JskmNLYCpieI6onbntr+NHogcmZB0u2jKcTen5A+lDwsucx0o4iYEZpKWTUiLjGz21n5/ByyvjARnIv9faAZMhbd5W72CBM3AgC6xs7T4sZ0Vwu7w5i2CxF0w77hQhsbmqgjnZSYrOwCyLFAOG6RG47OM1KeP3OwZik0WM/omEGuYBN3enhY2nFrjLXIFxrF7QDo0hfsKs+IIYbUT+G07RB2KfqvLCX9NFzEui21CVlahDD2aJRRHVFS2jMhLeXRCXdFBKfVyvRYyjSVY3E0Pg5XUuiiFLhJzJk1r1xA9WLjvi9LRdAOCag2+bx0hYgnXTAKKJjTLghDakI84iPZE4Kjk8GPXNOupZs0lu/k65jICbjk3UqiSKJxiQzJGCRQDAnCMBdSePQtxY9upXE8s+DyDA4v0ricVnpzt5tBYYkAVIyJ3GxLpiTWH4WBqDQ5/y4e1MrD91kxB4X8OqjDiSGKzEmwZxE9aXgPs3Zz2wzu973YpFOAveCuKLxeySlIRIYkSgScGyc6xIQSegnDbVgA4FBYZBIAEkoYgUGzI4igr5HzbIXGwqaAvfW63qy2g/osCaconSG50WL86ToMU1YACU1lxQ5SdJFlvJKNNrKttpvFPLFhxvUu2c8q0nwfrU8rSqYAcdT3fv63AWkuaVfYap1lm6pGimf9lNlHnVzmGalwNFUOn7s7A4BCUjezW2bGpWLHtOoQOi3587wOcwB1IqGsG/QvoBwEueANOUl8EN3a128GxlmXDq1x2o0oPefoojCq4l0D3lqWzzWH5UJnALSR5GWIAGNak/UnbGjz2qYeVs0igjGvnESjRfl6/mSgGDLnhi9RVorQIKM2yR6jANoaS6IUFXa8rIAFiDNQZLp0wmmcIxGAkYRqW1lmYt0cPB1PDi6btmANFe0Z/C+WXL1HPNoKa0C5YUB0lI9MriHV+SVQYijyutx+R4RmUN7mQO+UAMB0lzR/oTE4oM80yv+b88XXqOWyW2vsCp1dKssEZA7T412gnQUBqRFrzLI3tAL95F3fHNLIjAZPmGd9gomDUu26EOmXxEgAUm6AqdXqXZdTfCs+n1+J6X7v7k+U9DUsv4kThkccJG+NovmQrBxJEnHyraHvHWT7Vym3hPrTHEEGQdgtgmWSX7Ht5F7neJDBwfQZko1CIHaKadElQ5IaytbC4m1D0mTUWPUoaAoXwOTDEi79cgoqnYhabPe0NWbCiAtQ5IaoqkQXvr3qCPPNaAGSA8J9eRaaWsQ3L95QLjv5hLIrsgliUW5SYo177S5ol0hjy1iKIybtphiaTs01QjSR5HGinZK4O9Frp9PW88/pUAdzW/KoRk4M3VA2qpHzgv0Y2eQF5bF56s339Eg5tDMQUSbxRQTQFqB5Cx6sOst5U8pbz5hzfqwDAVJwquIGKmcfRMbOLpxmwFSf9F+LHSVvYPpy0nDF6V2/8ZvuE8rlylf4jKejz0FB3ewg8MckCGS1OmdTqNHi3OqdAWSqhFTuTWNIPUW7dfztlUurhgU5ebLvHvEqqQkqa6AfX3D+TqxR9CSntjqJhqaR5Dx/rUI/zS1amEJm/C67MUHLQsU9WNbd8yHlA2QOop2KnoIPo8gMgDDi6go4t4J5IMjS5G+VrVfD0ULvtYFh7UOqMLWc7Snxq7tWrJGEM9FOyX4KovYI2thFLcunQFj3NUDMiz9ektVONHD25gTTIFxoM9fpKd1lCCRw0uzRxCfRTstfJceVWoRHEBc1SK0fqSioK4rBoirop1a2XFlLJRKmb9XM+dycBQp0l0W7ZSxuEsJmRCcNaNWs5zMmaoNFSRx2kXRCOKmaD8xFn/1kqJJnDgGF/MuUJSvpVscED9F+zaUN7VydcjVzrxdRI+yqdUoLheAuIFkfjS9O0nLOkqu6NFLdTXOezw9XHzePuBwUYPMbcLf0mIpi73yff3A4Q4QVytbV7bRUnNnLD/nHpqbFGvaH2lxSTW3Vmu9n4Oi3GWRvln6DUhqNfGEcftKrdwV6RtIXKykJOg7LgUk4BMOlzVIFO2AXTXR1C8c7gGJor0JAo4n4bAor6IGWUSRqEfapcRhUV4dIH0UCUgahMR3auW+SI+ivUEmpinVAUcVNcgi3YqVrQaoqQeO6gCJor1yPiooyqusQaJorxyM5/BLP9shkaK7oyacSUTRzpGStzZ1pVbVFelRtHszeGQ8dcJRZQ0SRTtimB7a1gtH9YBE0e4BgJMxVFiUV1+kb1Kt2ER0S0mNRXlzgPRRJCBxCEndqVX1RXoU7Q6ZmIbUBhxN1CBRtHsDpR04mgOkT7fiOEpBYtqCo0lAApJCfFRwdF0imSp30rkTjWjClVRCuwaWcs9m3zQg48QHULqPXl/oZXAJNn966fj56vvj5e3vT69Wt/HS7yUA8SLsGEd9EghA6tNZjDijBAKQjMKOW9Ungf8DvLwFR1hWPcIAAAAASUVORK5CYII=;" vertex="1" parent="1">
          <mxGeometry x="125" y="190" width="30" height="30" as="geometry" />
        </mxCell>
        <mxCell id="k3dnD8RgvpeTuZdiRV0v-45" value="" style="shape=image;verticalLabelPosition=bottom;labelBackgroundColor=default;verticalAlign=top;aspect=fixed;imageAspect=0;image=data:image/png,iVBORw0KGgoAAAANSUhEUgAAAMgAAADICAYAAACtWK6eAAAAAXNSR0IArs4c6QAACkZJREFUeF7tnVFi2jgQhuXulZq+bRMO0DMlnKkHCHTfmlxp8a4gpIQAHlkaWTP6/NQWWdL8838dyTZmCByLKTA+h4dPg395+7ch3H/6bDxrP4TNhzZj2H46Zxc2w+qs3WIR2xt4sDdlmzN+h+Gv8LiP4NzsNcKKQB0hAhyR4gAikimtURMwpEz5CA7QfFINQFKMdKXtHoglK0OBGM66WMe/D/fhqXzXtnoEkJn5eodiiaXSzDnPOq3z6gIgCa7pBorbmnRVXQBkAhCHy6eE/xImm669L8MA5IIHPmyyvS+hJhkQNXBbVQDkJP8soUQwTDVyVVUAJN6SOF6FolpMmT/l83VwcNm4a0AAI8Xvs9uarihdAgIYs82ec6JJULoCBDBy/F3sXFOgdAEIYBQzd8mOTIDiHpBxu39c4vCAIEdrCjR/edgtIFSN1li4OZ9mq4lLQPZwfAnPpizCZKMCzYHiDpDxV3he5LsWGLyUAk1B4gYQqkYpfzbQT3yC+N+wbuGbkC4AYSPegKl1prB4NTENCBtxHVc21uuikJgFhKrRmI31p7MIKCYBAQ59NzY6QnVIzAHCVapGrVtvWlUhMQUIcNRzYeMjVYPEBCBsxhu36zLTqwJJ84Bwf2MZ95kYdQib4XtYac61aUCAQzP1TvpWvqnYLCBcqXJi4Fph7MJK4857k4AARy1XORtHAZLmAAEOZ6atHU5hSJoCBDhqu8nheIU37s0AwobcoVmXCqkgJO0Asg3jUnoyrkMFCkHSBCDcIXdo0DZCyr6ZuDgg7DvacJLjWWRBsiggwOHYlm2FNhuSxQABjrYc5H02w32Y5fVZJ+WKCRy5CnJ+ogJ2KgiXcxNTS/NcBWbDEQeuXkFGLufmJpzz5QpkwVEdEJZW8szSMluBbDiqAgIc2QmnA6kChW4S1gWENx5K00u7HAUKwlENEKpHTsY5N0GBIsuq0/HUN+lctUpIL01zFCgOR5UKwnNWOTnn3EkFLH/llqXVZHppkKeAStWossRiaZWXec6+qYA6GMfR1fYgLK2weDEF4jIqHgv8JIIKIO8veiumEB11o8AYtvtYd29QxMc9Vn/+XFsHFUBqB8F4KKClAIBoKUu/LhQAEBdpJAgtBQBES1n6daEAgLhII0FoKQAgWsrSrwsFAMRFGglCSwEA0VKWfl0oACAu0kgQWgoAiJay9OtCAQBxkUaC0FIAQLSUpV8XCgCIizQShJYCAKKlLP26UABAXKSRILQUABAtZenXhQIA4iKNBKGlAIBoKUu/LhQAEBdpJAgtBQBES1n6daEAgLhII0FoKQAgWsrSrwsFAMRFGglCSwEA0VKWfl0okATIt2/fnsZxfHQROUFIFNi/0XAYhv3L3H7//v0kOclTGwDxlM06sWwiMLvdbvP6+np4JajjIwmQu7u70bEWhJaowDAMa++VBUASTUHzzwp4BkUMyNevXx+GYXjGIChwTYEIird9ihgQNuiAIVHAGyQAIsk6bVIV2IzjuPawiRcDwgY91SO0H8dxZR0SAMHHmgpsXl5eVpoDaPctAoQNunYaXPdvGhIRIGzQXRtYPTjLG3cAUbcHA0QFrO5HRIDc3d3F+x8PpBoFMhQwudSSAsIjJhnO4NSDAharCIDg3poKmKsiAFLTHoxlrooACKatrYCpKjIJCPdAavvH/3gvLy+TvmtFhcmJAkgrqfIzD0ubdQDx4ztLkZhZZk0Cwl10S76zM1cryywAseMpVzMFEFfpJJjSCgBIaUXpz5UCVjbqLLFc2c5OMG4A4UFFO6azNFM3gHAVy5Lt7MwVQOzkipkuoACb9AVEZ0g7CrgBhEdN7JjO0kwBxFK2mGtVBSx9R33yMi8VpKp3uhgMQLpIM0HOVcDK8irGN1lBYiPeqjjXCpx3QQEzT/ICCP6troCl5RWAVLcHA1paXgEIfq2qgLXqkQIIL46raiWfg1mrHgDi04dNRmWxeogB4YHFJj1nZlJW4RADws1CM15scaKmLuueCyi6D8K9kBZ9Z2NOFvcdp8qmAMJG3YYnm5mlle983BIMQJqxk6uJ9PcjnmzUXRlYMxjTe47ZexA26pqe8tG35atV1zIgXmKxUfdhYqUo3CypZleQN0DYqCs5zGi3bsE45iO1ggCIUScXnPYm9jWO4/r19XX/Z89HEiBs1D1b4WJs7wBEIGKLHqCYdR+kO2sQMApIv1GIUijQqwJJS6xeRSLufhUAkH5zT+QCBQBEIBJN+lUAQPrNPZELFAAQgUg06VcBAOk390QuUABABCLRpF8FAKTf3BO5QAEAEYhEk34VAJB+c0/kAgUARCASTfpVAED6zT2RCxQAEIFINOlXAQDpN/dELlAAQAQi0aRfBQCk39wTuUABABGIRJN+FQCQfnNP5AIFAEQgEk36VQBA+s09kQsUABCBSDTpVwEA6Tf3RC5QAEAEItGkXwX0APn1k9eU9uur3MgPb3Qcw/a9o/sfT7mdzjlfD5B/fj6EMURIOFCglAKbPTQVYdEDJEqy/fkUhvBYSh36QYF3BcawrgGKLiAxGpZauFpTAWVQ9AFhqaVpD/o+KqAEij4gLLUwcS0FFCCpAwhLrVoWYZzCkNQDhKUW5q2lQEFI6gHCUquWPRjnoMAmfP+xyhWjLiAstXLzxfkpChSoJPUBYamVkmLa5iqQCUl9QFhq5aac81MVGMIq/P1j1i/yLgMIkKSmmPa5CsyEZDlAgCQ35ZwvVSBjmbUsIGzapSmm3VwFMuCIQy4PCJDMTT3nTSmQCUc7gADJVKr5PFWBAnC0BQiXf1MtQPvrChS5SdgWIHE2QILp8xUoBkd7gHBlK98evfcw83LuNdna2KSfz45vIvZu83nxF4ajzQpylAZI5pmk17MU4GgbEJZbvVo9Ne5NGMJ67qMkU4O1ucQ6nTUb96kc9vx50Q35JSHbB+Q4a17+0DMIl2JXh6P9Jda5LEACJFGBQjcBJWLaqSBs3iX59N+mIhz2KgiQ+AfgVoSV4bALCFe4+gNF6TLulJD2llinEXGvZCq/Hj6vshm/JpRtQFhyeQDgegwLLKnOJ+MDEJZc3kBRvfmXIpYfQKgmKXlvt20DVeNUHH+AUE3aNf/UzBbaiN+alk9AqCZTVmzt80U34v0CQjVpDYTz+TSz1/B9FUtiAy4JS1Sq1aZ5MI5C+F5iXUo3oNSC4PI4jW3Cp8ToDxD2J1Oe0PncGBj9VpDz9FNRdID406uZ5dQlIfqtIIACGAIFAARQBDYRNzFdLagg4jzzG+8pUu1/zUnxe+GJcynanAoyJWf8TvwuPIQhPE417fBzt2CwSZ/jZmCJqrmH4tQaVJA5oMRz4tWvePivLJswhm34EjZar9aZm4Ia5wFICZX/wHL///+wDyW6XLiPQ5WIx8yfLlt4/sWGB5BiUp50dFyKHSpM69Acfruv4ypxywIAogHIpT6Xh+YjCFQHUeYBRCSTYqMIzvGIV8s+7hBj9Tke50u3z7/aGqvA6RH3DYCQlbz/AE8aY/b9nLCxAAAAAElFTkSuQmCC;" vertex="1" parent="1">
          <mxGeometry x="640" y="530" width="40" height="40" as="geometry" />
        </mxCell>
        <mxCell id="k3dnD8RgvpeTuZdiRV0v-46" value="ElasticSearch" style="text;html=1;align=center;verticalAlign=middle;resizable=0;points=[];autosize=1;strokeColor=none;fillColor=none;" vertex="1" parent="1">
          <mxGeometry x="610" y="570" width="100" height="30" as="geometry" />
        </mxCell>
        <mxCell id="k3dnD8RgvpeTuZdiRV0v-47" value="" style="shape=image;verticalLabelPosition=bottom;labelBackgroundColor=default;verticalAlign=top;aspect=fixed;imageAspect=0;image=data:image/png,iVBORw0KGgoAAAANSUhEUgAAAMgAAADICAYAAACtWK6eAAAAAXNSR0IArs4c6QAACslJREFUeF7tnTuSW0UUhq8mwC4S21QRQcASHBBQENgC0qG8DDujyCmPV+GQLVCe3BKZXTUBO3GxAYSvNRoklR7dffu8ur8JrX7+/X/ue865o5kN/KAAChxVYCahzYdnr58O/w5PJcZmTBS4U+BiWD7688VSUhEZQH55fTUbZi8lF87YfSuwGlavHr15cSWtAoBIK8z41RXQgmNcOIBUPz4GFFVgNSwfXj+fi86xNTiAaCnNPFUUePjmuYhnjy1OZLIPxCBVzMAguwqsLlZz6aB8X3MAwYUhFLCAgxgkhDVYpGZQzg2C30IpYAkHN0goq/S3WGs4AKQ/z4XZsQc4ACSMXTpbqHKt45S6ZLE6816E7WrXOgAkgitY4ycFrNK5FAoxoHsFvMQd20LxiOXeNn0s0CMcBOl9eM/9Lr3CASDurdP+Aj3DASDt+8/3Dh2lcwnSfVulv9UFgIMbpD9butmxt3QuN4gba7CQKHBwg+BVdQW8B+X7glAHUbdIvxNGg4MbpF+vqu88IhwAom6TPieMCgeA9OlX3V0HSeeSxdK1BbPdKuDp1fWSQyFIL1GNPkkKRErncoMkHSmNaikQOe7Y1oAbpJYjGOdOgVbgIEjH1NUVaAkOAKluj74HbA0OAOnbz3V3HzydS5Be1w6Mtq1Ao3Bwg2DzKgpEr3WcEoEsVhWL9DtIC7UOAOnXv6I7bzEo3xeMG0TUQu0O3gMcxCDt+ld0Z73AASCiNmpz8J7gAJA2PSy3q4bTudRB5GzTzcgtp3MBpBsby2y09XQugMj4potRe4WDGKQLe0/bZG9BOXWQaX7pqnfvcHCDdGX3vM0Cx1ovKul5vumiNXD8f8wA0oXlMzbZYa3jlDoAkuGdHpr2WOsAkB6cXWGPPadzqYNUMFDLQxB3HD5dHrFadn3i3oDjuFAAkmiiVpsBx+mTBZBWnZ+wL+A4LxKAnNeozRakc5POFUCSZGqsEXAkHyiAJEvVTkPSuelnCSDpWjXREjjyjhFA8vQK3ZqgPP/4ACRfs5A9gKPs2ACkTLdQvYCj/LgApFy7ED2BY9oxAcg0/Xz3Jp07+XwAZLKEfgfg1fXpZwMg0zV0OQLp3DrHAiB1dHQ1CnFHveMAkHpauhgJOOoeA4DU1dN0NOCoLz+A1NfUZETgkJEdQGR01R2VdK6Y3gAiJq3SwMAhKjSAiMorPzi1DlmNRQD54+fffv3i4vNnx5b++LMvH2x/9uDi3mPZbbY5OrUO+XMVAeTb7368GlarlyXL//7eV3+P/X66/80/m/4jUEC0qyZBeYm78vu4A+TcFkaAeocHOM65pN7n4QA5tvVtcFq+cYCjnvlTRmoGkEOb3UDTCjDAkWLpum2aBmRfqtDAkM6t6/zE0boCZF+T3x/88Nf4b0/uf/0kUS+zZqRzbaTvGpBtyT3fLqRzbeAYZwWQI9qPt4uHmwU47OAAkATtNzeLBSwE5QkHJNyEGyRDYM2YBTgyDkawKYAUiiv5CAYchYci0A1AJopa+1YBjokHUrk7gFQUdPKtQq2j4mnUGQpA6ui4M0opKNQ6BA5j4pAAMlHAU91zQCGdK3gQE4YGkAnipXY9BwpxR6qS+u0ARFHzQ6AAh+IBFEwFIAWiTe2yAQU4piop3x9A5DU+PMNs9urm3dsrq+mZN00BAEnTqXar5c37xbz2oIxXXwEAqa/puRGB45xCjj4HEO3DmK3mN++WS+1pma9MAQAp062sF3CU6WbYC0C0xCco11K66jwAUlXOI4MBh4bKInMAiIisW4MCh7TCouMDiKS8wCGprsrYACInM+lcOW3VRgYQIalv3i9EtL1b7uJ6XYWfX1KNFzrDcViRQ5zy5dWCe9UbWjqdu4Zj8+Xgr4BE7mgBpLa20nHHLhyb1Y+FxxEUCpCVzxNAagpqA8f2DrhNap4nj1gV1ZSH4+nHb0ldJKwYSBJESm3CDZKq1Kl20nCMcy+uVxlLBZIMsU4ebaVxdobpLEiXT+cursebY7xBcn/mxCW5ku225waZpp8GHNsZq5LVcpuUqHbbB0AmiDfopnOnrBRICtUDkELhAsGx2SGQFJw1gBSINkgH5YdrHSUr3e+zHOaX/KpvhpIAkiHWp6bycKSmc3NXvmkPJBnKAUiGWA3AASQ5502hMEMt6ZtjXEp5OjdjI3dNuUkSVOMGSRDpYw1CI51bWutI28HxVtRKTigIIAn2Unp1ffN2bsKKqjcBkiOSAsg5r8WpdZzbybnPgeSAQgByyjbScYdcOvccDMc+B5I9ZQDkmFX6g2OjBJBseQJADgEiD4d0raP0BgESbpAz3pGGY53OzXl1farZS/tzk1AH2f/vQuFPEujWOkrhGPtRJwGQHf9o1Dqmvro+xfAlfbuHhBjk1jYd1DpKABn7dP0WMICMFuin1gEkmQoAiHRQ7q/WkWmRu+Zd3iR9AyIPh/d0bi4s3WW2+gUEOHLh6LJG0icg0nCsax1Wb+eWGj+93/xSxDfpC9BrKbJR51/7o5HObReOtTe7Sf/2BogGHNFqHaX/HXcRtPcFCOncUhiO9Wsekn4AAY7acHQRtPcBiHRQ3k6towSipuOR9gGRh6O1WkcJJM0+arUNiDQc63RuhFfXS0yf26fJImK7gOjA0Xo6NweSJh+1WgWEdG6Oteu1bQ6SJgHh1fV6ji8Yqal4pD1ASOcWeLp6l2bikbYAkY47+k7n5lDUzKNWO4DIw0E6NweRRn4TsQ1AgCPPunqtwz9qxQdEGg5qHVNwCv+oFR0QjXQutY4piAxD6FskMiAacPTy6vo0BE73Dn2LxAWEdK6kqWuPHbY2EhMQ4KhtYI3xQj5qxQNEOiin1iEFS8hHrViAyMNBrUMKj/W44W6ROIBIw0E6VxaN9ejhbpEYgOjAQTpXA5Fgt0gEQDTSucChA8ftg1ac79VyDwivrms6V22uMGlf34CQzlVzrMFEIQJ2v4BIxx2kcw2Y2JkyxC3iExDgsDavzvwBvuPXHyDycFDr0LF/yizubxFfgEjDQa0jxbS6bZzfIn4A0YGDdK6u/VNmcx2sewFEo9bBq+spdtVv47q67gIQah36rnQ2o9tbxB4Qah3OvGqyHLe3iC0g0nEHtQ4TtxdO6vIWsQNEHg7SuYVONerm8haxAQQ4jDzoflp3t4g+INJwrGsdpHPds3Bwge5uEW1ANNK5wBETDpevwmsCogEHtY7IcNwiMswvl162oQcI6VwvZ+59Ha4es3QAAQ7vpvS2PjfBujwg0kE5tQ5v5q6xHjdv+coCIg8HtY4advQ3hpvHLDlAhmG4efd2DJrlfvgLs3La2o/s4jFLBBAVbal1qMhsOImLWyQmIMQdhr5VnNrBL1PFAwQ4FB1qPpX5Y1YsQIDD3LHKCzB/zIoDCHAoe9PJdMaPWTEAWVyTznXiV4NlmD5m+QcEOAw86WpK08esCIDwdq4rvxosxvAxyzcg1DoM3OhySrPHLL+AEJS7dKrRoszezfIJCHAY+dDttGZxiD9AgMOtS00XZhSH+AIEOEw96HxykzjEDyCkc53703x5JnGIJ0BW5kfAAjwrYBKH+ACEdK5nY/pZm0EcYg8IcYcfA/pfiXocYgsIcPi3pK8VqschdoAAhy/rxViNehxiAwhwxLCjx1UqxyGWgHiUnzV5V2B+KftFIHv7twHE+yGwPhS4VeA/Ri9dI3KNHdUAAAAASUVORK5CYII=;" vertex="1" parent="1">
          <mxGeometry x="782.5" y="535" width="35" height="35" as="geometry" />
        </mxCell>
        <mxCell id="k3dnD8RgvpeTuZdiRV0v-49" value="kiba&lt;span style=&quot;background-color: initial;&quot;&gt;na&lt;/span&gt;" style="text;html=1;align=center;verticalAlign=middle;resizable=0;points=[];autosize=1;strokeColor=none;fillColor=none;" vertex="1" parent="1">
          <mxGeometry x="770" y="570" width="60" height="30" as="geometry" />
        </mxCell>
        <mxCell id="k3dnD8RgvpeTuZdiRV0v-52" value="" style="rounded=0;whiteSpace=wrap;html=1;" vertex="1" parent="1">
          <mxGeometry x="600" y="180" width="200" height="150" as="geometry" />
        </mxCell>
      </root>
    </mxGraphModel>
  </diagram>
</mxfile>
